<?xml version="1.0" standalone="no"?><svg xmlns="http://www.w3.org/2000/svg" viewBox="0 0 1440 320"><path fill="#5000ca" fill-opacity="1" d="M0,64L30,58.7C60,53,120,43,180,53.3C240,64,300,96,360,144C420,192,480,256,540,277.3C600,299,660,277,720,272C780,267,840,277,900,256C960,235,1020,181,1080,165.3C1140,149,1200,171,1260,160C1320,149,1380,107,1410,85.3L1440,64L1440,320L1410,320C1380,320,1320,320,1260,320C1200,320,1140,320,1080,320C1020,320,960,320,900,320C840,320,780,320,720,320C660,320,600,320,540,320C480,320,420,320,360,320C300,320,240,320,180,320C120,320,60,320,30,320L0,320Z"></path></svg>