<?xml version="1.0" standalone="no"?><svg xmlns="http://www.w3.org/2000/svg" viewBox="0 0 1440 320"><path fill="#5000ca" fill-opacity="1" d="M0,224L30,213.3C60,203,120,181,180,181.3C240,181,300,203,360,224C420,245,480,267,540,282.7C600,299,660,309,720,314.7C780,320,840,320,900,298.7C960,277,1020,235,1080,224C1140,213,1200,235,1260,250.7C1320,267,1380,277,1410,282.7L1440,288L1440,320L1410,320C1380,320,1320,320,1260,320C1200,320,1140,320,1080,320C1020,320,960,320,900,320C840,320,780,320,720,320C660,320,600,320,540,320C480,320,420,320,360,320C300,320,240,320,180,320C120,320,60,320,30,320L0,320Z"></path></svg>