<svg xmlns="http://www.w3.org/2000/svg" version="1.1" xmlns:xlink="http://www.w3.org/1999/xlink" xmlns:svgjs="http://svgjs.dev/svgjs" width="1200" height="705" preserveAspectRatio="none" viewBox="0 0 1200 705"><g mask="url(&quot;#SvgjsMask5254&quot;)" fill="none"><rect width="1200" height="705" x="0" y="0" fill="url(&quot;#SvgjsLinearGradient5255&quot;)"></rect><g mask="url(&quot;#SvgjsMask5256&quot;)"><path d="M125 375L175 375L225 375M-25 375L25 375L75 375L125 375L175 325" stroke="#dd1133" stroke-width="8.33"></path><path d="M162.5 325 a12.5 12.5 0 1 0 25 0 a12.5 12.5 0 1 0 -25 0zM212.5 375 a12.5 12.5 0 1 0 25 0 a12.5 12.5 0 1 0 -25 0z" fill="#dd1133"></path><path d="M75 425L125 475L175 475L225 475M-25 425L25 425L75 425L125 425L175 425L225 425" stroke="rgba(63, 0, 255, 1)" stroke-width="8.33"></path><path d="M212.5 425 a12.5 12.5 0 1 0 25 0 a12.5 12.5 0 1 0 -25 0zM212.5 475 a12.5 12.5 0 1 0 25 0 a12.5 12.5 0 1 0 -25 0z" fill="rgba(63, 0, 255, 1)"></path><path d="M75 325L125 275M25 275L75 275M-25 275L25 275L75 325L125 325L175 275" stroke="rgba(63, 0, 255, 1)" stroke-width="8.33"></path><path d="M162.5 275 a12.5 12.5 0 1 0 25 0 a12.5 12.5 0 1 0 -25 0zM112.5 275 a12.5 12.5 0 1 0 25 0 a12.5 12.5 0 1 0 -25 0zM62.5 275 a12.5 12.5 0 1 0 25 0 a12.5 12.5 0 1 0 -25 0z" fill="rgba(63, 0, 255, 1)"></path><path d="M125 525L175 575L225 575M75 525L125 575L175 625M25 475L75 475M-25 475L25 475L75 525L125 525L175 525" stroke="rgba(63, 0, 255, 1)" stroke-width="8.33"></path><path d="M162.5 525 a12.5 12.5 0 1 0 25 0 a12.5 12.5 0 1 0 -25 0zM212.5 575 a12.5 12.5 0 1 0 25 0 a12.5 12.5 0 1 0 -25 0zM162.5 625 a12.5 12.5 0 1 0 25 0 a12.5 12.5 0 1 0 -25 0zM62.5 475 a12.5 12.5 0 1 0 25 0 a12.5 12.5 0 1 0 -25 0z" fill="rgba(63, 0, 255, 1)"></path><path d="M75 225L125 175L175 175L225 175L275 175M225 225L275 275L325 275M25 225L75 175L125 125L175 125M-25 225L25 225L75 225L125 225L175 225L225 225L275 225" stroke="rgba(63, 0, 255, 1)" stroke-width="8.33"></path><path d="M262.5 225 a12.5 12.5 0 1 0 25 0 a12.5 12.5 0 1 0 -25 0zM262.5 175 a12.5 12.5 0 1 0 25 0 a12.5 12.5 0 1 0 -25 0zM312.5 275 a12.5 12.5 0 1 0 25 0 a12.5 12.5 0 1 0 -25 0zM162.5 125 a12.5 12.5 0 1 0 25 0 a12.5 12.5 0 1 0 -25 0z" fill="rgba(63, 0, 255, 1)"></path></g></g><defs><mask id="SvgjsMask5254"><rect width="1200" height="705" fill="#ffffff"></rect></mask><linearGradient x1="10.31%" y1="-17.55%" x2="89.69%" y2="117.55%" gradientUnits="userSpaceOnUse" id="SvgjsLinearGradient5255"><stop stop-color="rgba(217, 220, 227, 1)" offset="0"></stop><stop stop-color="rgba(217, 220, 227, 1)" offset="0.38"></stop></linearGradient><mask id="SvgjsMask5256"><rect width="1200" height="705" fill="white"></rect><path d="M168.75 325 a6.25 6.25 0 1 0 12.5 0 a6.25 6.25 0 1 0 -12.5 0zM218.75 375 a6.25 6.25 0 1 0 12.5 0 a6.25 6.25 0 1 0 -12.5 0z" fill="black"></path><path d="M218.75 425 a6.25 6.25 0 1 0 12.5 0 a6.25 6.25 0 1 0 -12.5 0zM218.75 475 a6.25 6.25 0 1 0 12.5 0 a6.25 6.25 0 1 0 -12.5 0z" fill="black"></path><path d="M168.75 275 a6.25 6.25 0 1 0 12.5 0 a6.25 6.25 0 1 0 -12.5 0zM118.75 275 a6.25 6.25 0 1 0 12.5 0 a6.25 6.25 0 1 0 -12.5 0zM68.75 275 a6.25 6.25 0 1 0 12.5 0 a6.25 6.25 0 1 0 -12.5 0z" fill="black"></path><path d="M168.75 525 a6.25 6.25 0 1 0 12.5 0 a6.25 6.25 0 1 0 -12.5 0zM218.75 575 a6.25 6.25 0 1 0 12.5 0 a6.25 6.25 0 1 0 -12.5 0zM168.75 625 a6.25 6.25 0 1 0 12.5 0 a6.25 6.25 0 1 0 -12.5 0zM68.75 475 a6.25 6.25 0 1 0 12.5 0 a6.25 6.25 0 1 0 -12.5 0z" fill="black"></path><path d="M268.75 225 a6.25 6.25 0 1 0 12.5 0 a6.25 6.25 0 1 0 -12.5 0zM268.75 175 a6.25 6.25 0 1 0 12.5 0 a6.25 6.25 0 1 0 -12.5 0zM318.75 275 a6.25 6.25 0 1 0 12.5 0 a6.25 6.25 0 1 0 -12.5 0zM168.75 125 a6.25 6.25 0 1 0 12.5 0 a6.25 6.25 0 1 0 -12.5 0z" fill="black"></path></mask></defs></svg>