<svg xmlns="http://www.w3.org/2000/svg" version="1.1" xmlns:xlink="http://www.w3.org/1999/xlink" xmlns:svgjs="http://svgjs.dev/svgjs" width="1460" height="707" preserveAspectRatio="none" viewBox="0 0 1460 707"><g mask="url(&quot;#SvgjsMask2589&quot;)" fill="none"><g mask="url(&quot;#SvgjsMask2591&quot;)"><path d="M75 375L125 425L175 425L225 425M-25 375L25 375L75 375L125 375L175 375" stroke="url(&quot;#SvgjsRadialGradient2590&quot;)" stroke-width="8.33"></path><path d="M162.5 375 a12.5 12.5 0 1 0 25 0 a12.5 12.5 0 1 0 -25 0zM212.5 425 a12.5 12.5 0 1 0 25 0 a12.5 12.5 0 1 0 -25 0z" fill="url(&quot;#SvgjsRadialGradient2590&quot;)"></path><path d="M-25 325L25 325L75 325L125 325" stroke="url(&quot;#SvgjsRadialGradient2590&quot;)" stroke-width="8.33"></path><path d="M112.5 325 a12.5 12.5 0 1 0 25 0 a12.5 12.5 0 1 0 -25 0z" fill="url(&quot;#SvgjsRadialGradient2590&quot;)"></path><path d="M25 275L75 225L125 225L175 225M-25 275L25 275L75 275L125 275" stroke="url(&quot;#SvgjsRadialGradient2590&quot;)" stroke-width="8.33"></path><path d="M112.5 275 a12.5 12.5 0 1 0 25 0 a12.5 12.5 0 1 0 -25 0zM162.5 225 a12.5 12.5 0 1 0 25 0 a12.5 12.5 0 1 0 -25 0z" fill="url(&quot;#SvgjsRadialGradient2590&quot;)"></path><path d="M75 475L125 525M175 475L225 525L275 575L325 575L375 575M225 475L275 475M-25 475L25 475L75 475L125 475L175 475L225 475L275 525" stroke="url(&quot;#SvgjsRadialGradient2590&quot;)" stroke-width="8.33"></path><path d="M262.5 525 a12.5 12.5 0 1 0 25 0 a12.5 12.5 0 1 0 -25 0zM112.5 525 a12.5 12.5 0 1 0 25 0 a12.5 12.5 0 1 0 -25 0zM362.5 575 a12.5 12.5 0 1 0 25 0 a12.5 12.5 0 1 0 -25 0zM262.5 475 a12.5 12.5 0 1 0 25 0 a12.5 12.5 0 1 0 -25 0z" fill="url(&quot;#SvgjsRadialGradient2590&quot;)"></path><path d="M125 175L175 125L225 125L275 125M75 175L125 125M25 175L75 125M-25 225L25 175L75 175L125 175L175 175" stroke="url(&quot;#SvgjsRadialGradient2590&quot;)" stroke-width="8.33"></path><path d="M162.5 175 a12.5 12.5 0 1 0 25 0 a12.5 12.5 0 1 0 -25 0zM262.5 125 a12.5 12.5 0 1 0 25 0 a12.5 12.5 0 1 0 -25 0zM112.5 125 a12.5 12.5 0 1 0 25 0 a12.5 12.5 0 1 0 -25 0zM62.5 125 a12.5 12.5 0 1 0 25 0 a12.5 12.5 0 1 0 -25 0z" fill="url(&quot;#SvgjsRadialGradient2590&quot;)"></path></g></g><defs><mask id="SvgjsMask2589"><rect width="1460" height="707" fill="#ffffff"></rect></mask><radialGradient cx="0" cy="353.5" r="837.46" gradientUnits="userSpaceOnUse" id="SvgjsRadialGradient2590"><stop stop-color="#3a7cc3" offset="0"></stop><stop stop-color="rgba(255, 0, 42, 1)" offset="1"></stop></radialGradient><mask id="SvgjsMask2591"><rect width="1460" height="707" fill="white"></rect><path d="M168.75 375 a6.25 6.25 0 1 0 12.5 0 a6.25 6.25 0 1 0 -12.5 0zM218.75 425 a6.25 6.25 0 1 0 12.5 0 a6.25 6.25 0 1 0 -12.5 0z" fill="black"></path><path d="M118.75 325 a6.25 6.25 0 1 0 12.5 0 a6.25 6.25 0 1 0 -12.5 0z" fill="black"></path><path d="M118.75 275 a6.25 6.25 0 1 0 12.5 0 a6.25 6.25 0 1 0 -12.5 0zM168.75 225 a6.25 6.25 0 1 0 12.5 0 a6.25 6.25 0 1 0 -12.5 0z" fill="black"></path><path d="M268.75 525 a6.25 6.25 0 1 0 12.5 0 a6.25 6.25 0 1 0 -12.5 0zM118.75 525 a6.25 6.25 0 1 0 12.5 0 a6.25 6.25 0 1 0 -12.5 0zM368.75 575 a6.25 6.25 0 1 0 12.5 0 a6.25 6.25 0 1 0 -12.5 0zM268.75 475 a6.25 6.25 0 1 0 12.5 0 a6.25 6.25 0 1 0 -12.5 0z" fill="black"></path><path d="M168.75 175 a6.25 6.25 0 1 0 12.5 0 a6.25 6.25 0 1 0 -12.5 0zM268.75 125 a6.25 6.25 0 1 0 12.5 0 a6.25 6.25 0 1 0 -12.5 0zM118.75 125 a6.25 6.25 0 1 0 12.5 0 a6.25 6.25 0 1 0 -12.5 0zM68.75 125 a6.25 6.25 0 1 0 12.5 0 a6.25 6.25 0 1 0 -12.5 0z" fill="black"></path></mask></defs></svg>